<svg width="20" height="19" viewBox="0 0 20 19" fill="none" xmlns="http://www.w3.org/2000/svg">
<path d="M19 9.3201C19 3.8301 14.74 0.100098 10 0.100098C5.31 0.100098 1 3.7501 1 9.3801C0.4 9.7201 0 10.3601 0 11.1001V13.1001C0 14.2001 0.9 15.1001 2 15.1001H3V9.0001C3 5.1301 6.13 2.0001 10 2.0001C13.87 2.0001 17 5.1301 17 9.0001V16.1001H9V18.1001H17C18.1 18.1001 19 17.2001 19 16.1001V14.8801C19.59 14.5701 20 13.9601 20 13.2401V10.9401C20 10.2401 19.59 9.6301 19 9.3201Z" fill="#AEAFB4"/>
<path d="M7 11.1001C7.55228 11.1001 8 10.6524 8 10.1001C8 9.54781 7.55228 9.1001 7 9.1001C6.44772 9.1001 6 9.54781 6 10.1001C6 10.6524 6.44772 11.1001 7 11.1001Z" fill="#AEAFB4"/>
<path d="M13 11.1001C13.5523 11.1001 14 10.6524 14 10.1001C14 9.54781 13.5523 9.1001 13 9.1001C12.4477 9.1001 12 9.54781 12 10.1001C12 10.6524 12.4477 11.1001 13 11.1001Z" fill="#AEAFB4"/>
<path d="M16 8.1301C15.52 5.2801 13.04 3.1001 10.05 3.1001C7.01997 3.1001 3.75997 5.6101 4.01997 9.5501C6.48997 8.5401 8.34997 6.3401 8.87997 3.6601C10.19 6.2901 12.88 8.1001 16 8.1301Z" fill="#AEAFB4"/>
</svg>
